<mxfile host="app.diagrams.net" modified="2024-02-23T08:38:42.448Z" agent="Mozilla/5.0 (Windows NT 10.0; WOW64) AppleWebKit/537.36 (KHTML, like Gecko) Chrome/86.0.4240.198 Safari/537.36" etag="UkNECXmFiXHfXuvgp3bJ" version="23.1.5" type="github">
  <diagram name="Page-1" id="edf60f1a-56cd-e834-aa8a-f176f3a09ee4">
    <mxGraphModel dx="936" dy="543" grid="0" gridSize="10" guides="1" tooltips="1" connect="1" arrows="1" fold="1" page="0" pageScale="1" pageWidth="1100" pageHeight="850" background="none" math="0" shadow="0">
      <root>
        <mxCell id="0" />
        <mxCell id="1" parent="0" />
        <mxCell id="zA5loybsxLI468F5paja-5" style="rounded=0;orthogonalLoop=1;jettySize=auto;html=1;exitX=0.5;exitY=1;exitDx=0;exitDy=0;entryX=0.5;entryY=0;entryDx=0;entryDy=0;" edge="1" parent="1" source="60e70716793133e9-10" target="zA5loybsxLI468F5paja-8">
          <mxGeometry relative="1" as="geometry">
            <mxPoint x="306" y="367" as="targetPoint" />
          </mxGeometry>
        </mxCell>
        <mxCell id="60e70716793133e9-10" value="&lt;font style=&quot;font-size: 16px;&quot;&gt;构建数据湖&lt;/font&gt;" style="whiteSpace=wrap;html=1;rounded=0;shadow=0;labelBackgroundColor=none;strokeWidth=1;fontFamily=Verdana;fontSize=8;align=center;" parent="1" vertex="1">
          <mxGeometry x="213" y="280" width="186" height="47" as="geometry" />
        </mxCell>
        <mxCell id="zA5loybsxLI468F5paja-3" style="edgeStyle=orthogonalEdgeStyle;rounded=0;orthogonalLoop=1;jettySize=auto;html=1;exitX=0.5;exitY=1;exitDx=0;exitDy=0;exitPerimeter=0;" edge="1" parent="1" source="60e70716793133e9-30" target="60e70716793133e9-10">
          <mxGeometry relative="1" as="geometry" />
        </mxCell>
        <mxCell id="60e70716793133e9-30" value="&lt;font style=&quot;font-size: 16px;&quot;&gt;开始&lt;/font&gt;" style="strokeWidth=1;html=1;shape=mxgraph.flowchart.terminator;whiteSpace=wrap;rounded=0;shadow=0;labelBackgroundColor=none;fontFamily=Verdana;fontSize=8;align=center;" parent="1" vertex="1">
          <mxGeometry x="252" y="194" width="108" height="44" as="geometry" />
        </mxCell>
        <mxCell id="zA5loybsxLI468F5paja-2" value="&lt;font style=&quot;font-size: 16px;&quot;&gt;结束&lt;/font&gt;" style="strokeWidth=1;html=1;shape=mxgraph.flowchart.terminator;whiteSpace=wrap;rounded=0;shadow=0;labelBackgroundColor=none;fontFamily=Verdana;fontSize=8;align=center;" vertex="1" parent="1">
          <mxGeometry x="522" y="538" width="108" height="44" as="geometry" />
        </mxCell>
        <mxCell id="zA5loybsxLI468F5paja-11" style="edgeStyle=orthogonalEdgeStyle;rounded=0;orthogonalLoop=1;jettySize=auto;html=1;exitX=0.5;exitY=1;exitDx=0;exitDy=0;" edge="1" parent="1" source="zA5loybsxLI468F5paja-8" target="zA5loybsxLI468F5paja-10">
          <mxGeometry relative="1" as="geometry" />
        </mxCell>
        <mxCell id="zA5loybsxLI468F5paja-8" value="&lt;font style=&quot;font-size: 16px;&quot;&gt;数据采集与集成&lt;/font&gt;" style="whiteSpace=wrap;html=1;rounded=0;shadow=0;labelBackgroundColor=none;strokeWidth=1;fontFamily=Verdana;fontSize=8;align=center;" vertex="1" parent="1">
          <mxGeometry x="213" y="366" width="186" height="47" as="geometry" />
        </mxCell>
        <mxCell id="zA5loybsxLI468F5paja-13" style="edgeStyle=orthogonalEdgeStyle;rounded=0;orthogonalLoop=1;jettySize=auto;html=1;exitX=0.5;exitY=1;exitDx=0;exitDy=0;entryX=0.5;entryY=0;entryDx=0;entryDy=0;" edge="1" parent="1" source="zA5loybsxLI468F5paja-10" target="zA5loybsxLI468F5paja-12">
          <mxGeometry relative="1" as="geometry" />
        </mxCell>
        <mxCell id="zA5loybsxLI468F5paja-10" value="&lt;font style=&quot;font-size: 16px;&quot;&gt;数据模式设计&lt;/font&gt;" style="whiteSpace=wrap;html=1;rounded=0;shadow=0;labelBackgroundColor=none;strokeWidth=1;fontFamily=Verdana;fontSize=8;align=center;" vertex="1" parent="1">
          <mxGeometry x="213" y="452" width="186" height="47" as="geometry" />
        </mxCell>
        <mxCell id="zA5loybsxLI468F5paja-18" style="edgeStyle=orthogonalEdgeStyle;rounded=0;orthogonalLoop=1;jettySize=auto;html=1;exitX=0.5;exitY=1;exitDx=0;exitDy=0;entryX=0.5;entryY=0;entryDx=0;entryDy=0;" edge="1" parent="1" source="zA5loybsxLI468F5paja-12" target="zA5loybsxLI468F5paja-14">
          <mxGeometry relative="1" as="geometry" />
        </mxCell>
        <mxCell id="zA5loybsxLI468F5paja-12" value="&lt;font style=&quot;font-size: 16px;&quot;&gt;列式存储与索引设计&lt;/font&gt;" style="whiteSpace=wrap;html=1;rounded=0;shadow=0;labelBackgroundColor=none;strokeWidth=1;fontFamily=Verdana;fontSize=8;align=center;" vertex="1" parent="1">
          <mxGeometry x="213" y="538" width="186" height="47" as="geometry" />
        </mxCell>
        <mxCell id="zA5loybsxLI468F5paja-19" style="edgeStyle=orthogonalEdgeStyle;rounded=0;orthogonalLoop=1;jettySize=auto;html=1;exitX=0.5;exitY=1;exitDx=0;exitDy=0;" edge="1" parent="1" source="zA5loybsxLI468F5paja-14" target="zA5loybsxLI468F5paja-15">
          <mxGeometry relative="1" as="geometry" />
        </mxCell>
        <mxCell id="zA5loybsxLI468F5paja-14" value="&lt;font style=&quot;font-size: 16px;&quot;&gt;查询引擎优化&lt;/font&gt;" style="whiteSpace=wrap;html=1;rounded=0;shadow=0;labelBackgroundColor=none;strokeWidth=1;fontFamily=Verdana;fontSize=8;align=center;" vertex="1" parent="1">
          <mxGeometry x="483" y="194" width="186" height="47" as="geometry" />
        </mxCell>
        <mxCell id="zA5loybsxLI468F5paja-20" style="edgeStyle=orthogonalEdgeStyle;rounded=0;orthogonalLoop=1;jettySize=auto;html=1;exitX=0.5;exitY=1;exitDx=0;exitDy=0;" edge="1" parent="1" source="zA5loybsxLI468F5paja-15" target="zA5loybsxLI468F5paja-16">
          <mxGeometry relative="1" as="geometry" />
        </mxCell>
        <mxCell id="zA5loybsxLI468F5paja-15" value="&lt;font style=&quot;font-size: 16px;&quot;&gt;元数据管理&lt;/font&gt;" style="whiteSpace=wrap;html=1;rounded=0;shadow=0;labelBackgroundColor=none;strokeWidth=1;fontFamily=Verdana;fontSize=8;align=center;" vertex="1" parent="1">
          <mxGeometry x="483" y="280" width="186" height="47" as="geometry" />
        </mxCell>
        <mxCell id="zA5loybsxLI468F5paja-21" style="edgeStyle=orthogonalEdgeStyle;rounded=0;orthogonalLoop=1;jettySize=auto;html=1;exitX=0.5;exitY=1;exitDx=0;exitDy=0;" edge="1" parent="1" source="zA5loybsxLI468F5paja-16" target="zA5loybsxLI468F5paja-17">
          <mxGeometry relative="1" as="geometry" />
        </mxCell>
        <mxCell id="zA5loybsxLI468F5paja-16" value="&lt;font style=&quot;font-size: 16px;&quot;&gt;数据安全与权限管理&lt;/font&gt;" style="whiteSpace=wrap;html=1;rounded=0;shadow=0;labelBackgroundColor=none;strokeWidth=1;fontFamily=Verdana;fontSize=8;align=center;" vertex="1" parent="1">
          <mxGeometry x="483" y="366" width="186" height="47" as="geometry" />
        </mxCell>
        <mxCell id="zA5loybsxLI468F5paja-22" style="edgeStyle=orthogonalEdgeStyle;rounded=0;orthogonalLoop=1;jettySize=auto;html=1;exitX=0.5;exitY=1;exitDx=0;exitDy=0;" edge="1" parent="1" source="zA5loybsxLI468F5paja-17" target="zA5loybsxLI468F5paja-2">
          <mxGeometry relative="1" as="geometry" />
        </mxCell>
        <mxCell id="zA5loybsxLI468F5paja-17" value="&lt;font style=&quot;font-size: 16px;&quot;&gt;性能优化&lt;/font&gt;" style="whiteSpace=wrap;html=1;rounded=0;shadow=0;labelBackgroundColor=none;strokeWidth=1;fontFamily=Verdana;fontSize=8;align=center;" vertex="1" parent="1">
          <mxGeometry x="483" y="452" width="186" height="47" as="geometry" />
        </mxCell>
      </root>
    </mxGraphModel>
  </diagram>
</mxfile>
